<svg xmlns="http://www.w3.org/2000/svg" viewBox="0 0 47.5 47.5" id="bank"><defs><clipPath id="a"><path d="M0 38h38V0H0v38Z"></path></clipPath></defs><g clip-path="url(#a)" transform="matrix(1.25 0 0 -1.25 0 47.5)"><path fill="#78b159" d="M37.042 5a4 4 0 0 0-4-4h-28a4 4 0 0 0-4 4v28a4 4 0 0 0 4 4h28a4 4 0 0 0 4-4V5Z"></path><path fill="#f5f8fa" d="M10.896 22.125H6.792c-.688 0-1.227.327-1.227.985 0 .661.539.991 1.227.991h2.875L4.875 31.5c-.297.448-.449.775-.449 1.194 0 .571.571.991 1.049.991.481 0 .958-.21 1.378-.839l5.36-8.058 5.363 8.058c.419.629.897.839 1.378.839.477 0 1.046-.42 1.046-.991 0-.419-.149-.746-.449-1.194l-4.792-7.399h2.875c.69 0 1.229-.33 1.229-.991 0-.658-.539-.985-1.229-.985h-4.101v-2.126h4.101c.69 0 1.229-.332 1.229-.99 0-.658-.539-.988-1.229-.988h-4.101V13.41c0-.868-.539-1.41-1.32-1.41-.778 0-1.317.542-1.317 1.41v4.611H6.792c-.688 0-1.227.33-1.227.988 0 .658.539.99 1.227.99h4.104v2.126Z"></path><path fill="#f5f8fa" d="M5.002 3a2 2 0 0 0-1.031 3.715l5 3c.501.3 1.109.366 1.661.182l4.678-1.559 3.129 3.911a2 2 0 0 0 2.304.608l3.03-1.212 2.33 6.987c.098.295.263.563.483.782l5 5a2 2 0 1 0 2.828-2.828l-4.666-4.666-2.85-8.553a2 2 0 0 0-2.641-1.224l-3.622 1.449-3.073-3.841a2.003 2.003 0 0 0-2.194-.648L10.24 5.812 6.029 3.285A1.993 1.993 0 0 0 5.002 3"></path></g></svg>