<svg xmlns="http://www.w3.org/2000/svg" width="16" height="16" id="bank"><g transform="translate(958.514 -1066.362)"><rect width="7" height="7" x="-954.5" y="1073.362" fill="#576d7e" ry="0"></rect><rect width="1" height="7" x="-947" y="1073.362" fill="#e9eded" ry="0"></rect><rect width="1" height="7" x="-956" y="1073.362" fill="#e9eded" ry="0"></rect><path fill="#e9eded" d="m-958.014 1072.362 7-5 7 5z"></path><circle cx="-951" cy="1070.362" r="1" fill="#cad1d8" fill-rule="evenodd"></circle><rect width="14" height="2" x="-958.014" y="1080.362" fill="#cad1d8" rx="1" ry="1"></rect><rect width="1" height="8" x="-957" y="1072.362" fill="#cad1d8" ry="0"></rect><rect width="1" height="8" x="-955" y="1072.362" fill="#cad1d8" ry="0"></rect><rect width="1" height="8" x="-946" y="1072.362" fill="#cad1d8" ry="0"></rect><rect width="1" height="8" x="-948" y="1072.362" fill="#cad1d8" ry="0"></rect><path fill="none" stroke="#cad1d8" stroke-linejoin="round" d="m-958.014 1072.862 7-6 7 6z"></path><rect width="14" height="1" x="-958.014" y="1081.362" fill="#cad1d8" rx="0" ry="0"></rect></g></svg>